# xmcd
#
# Track frame offsets:
#	150
#	33274
#	57278
#	72427
#	88286
#	107330
#	124615
#	149516
#	166841
#	184314
#	203296
#	230315
#
# Disc length: 3916 seconds
#
# Revision: 0
# Processed by: cddbd v1.5.2PL0 Copyright (c) Steve Scherf et al.
# Submitted via: audiograbber 1.83.01
#
DISCID=9e0f4a0c
DTITLE=Jacqueline - Auf der Erde (LC 02983)
DYEAR=2009
DGENRE=Deutsch
TTITLE0=Auf der Erde (rerecorded)
TTITLE1=Japanese Boy (Lange Version)
TTITLE2=Joghurt vor der Tür (Radio Edit)
TTITLE3=Hot Stuff (German Version)
TTITLE4=Auf rotem Papier
TTITLE5=Liebeszauber
TTITLE6=Mach mich an (Lange Version)
TTITLE7=Drei Worte für Sarah (rerecorded)
TTITLE8=Nur Du und ich
TTITLE9=Dschungeldjango
TTITLE10=Verliebt, verloren ...
TTITLE11=Data Track
EXTD=eingetragen by DJJensN.de
EXTT0=
EXTT1=
EXTT2=
EXTT3=
EXTT4=
EXTT5=
EXTT6=
EXTT7=
EXTT8=
EXTT9=
EXTT10=
EXTT11=
PLAYORDER=
